HIERARCHY
ROOT RootJoint
{
    OFFSET   0.000000   0.000000   0.000000
    CHANNELS 6 Xposition Yposition Zposition Xrotation Yrotation Zrotation
    JOINT pelvis_lowerback
    {
        OFFSET   0.000000   0.093605   0.000000
        CHANNELS 3 Xrotation Yrotation Zrotation
        JOINT lowerback_torso
        {
            OFFSET   0.000000   0.100000   0.000000
            CHANNELS 3 Xrotation Yrotation Zrotation
            JOINT torso_head
            {
                OFFSET   0.000000   0.282350   0.000000
                CHANNELS 3 Xrotation Yrotation Zrotation
                End Site
                {
                    OFFSET   0.000000   0.192650   0.000000
                }
            }
            JOINT rTorso_Clavicle
            {
                OFFSET  -0.001000   0.157500   0.000000
                CHANNELS 3 Xrotation Yrotation Zrotation
                JOINT rShoulder
                {
                    OFFSET  -0.117647   0.000000   0.000000
                    CHANNELS 3 Xrotation Yrotation Zrotation
                    JOINT rElbow
                    {
                        OFFSET  -0.245000   0.000000   0.000000
                        CHANNELS 3 Xrotation Yrotation Zrotation
                        JOINT rWrist
                        {
                            OFFSET  -0.240000   0.000000   0.000000
                            CHANNELS 3 Xrotation Yrotation Zrotation
                            End Site
                            {
                                OFFSET  -0.116353  -0.002500   0.000000
                            }
                        }
                    }
                }
            }
            JOINT lTorso_Clavicle
            {
                OFFSET   0.001000   0.157500   0.000000
                CHANNELS 3 Xrotation Yrotation Zrotation
                JOINT lShoulder
                {
                    OFFSET   0.117647   0.000000   0.000000
                    CHANNELS 3 Xrotation Yrotation Zrotation
                    JOINT lElbow
                    {
                        OFFSET   0.245000   0.000000   0.000000
                        CHANNELS 3 Xrotation Yrotation Zrotation
                        JOINT lWrist
                        {
                            OFFSET   0.240000   0.000000   0.000000
                            CHANNELS 3 Xrotation Yrotation Zrotation
                            End Site
                            {
                                OFFSET   0.116353  -0.002500   0.000000
                            }
                        }
                    }
                }
            }
        }
    }
    JOINT rHip
    {
        OFFSET  -0.100000  -0.051395   0.000000
        CHANNELS 3 Xrotation Yrotation Zrotation
        JOINT rKnee
        {
            OFFSET   0.000000  -0.410000   0.000000
            CHANNELS 3 Xrotation Yrotation Zrotation
            JOINT rAnkle
            {
                OFFSET   0.000000  -0.390000   0.000000
                CHANNELS 3 Xrotation Yrotation Zrotation
                JOINT rToeJoint
                {
                    OFFSET   0.000000  -0.050000   0.130000
                    CHANNELS 3 Xrotation Yrotation Zrotation
                    End Site
                    {
                        OFFSET  -0.010000   0.002000   0.060000
                    }
                }
            }
        }
    }
    JOINT lHip
    {
        OFFSET   0.100000  -0.051395   0.000000
        CHANNELS 3 Xrotation Yrotation Zrotation
        JOINT lKnee
        {
            OFFSET   0.000000  -0.410000   0.000000
            CHANNELS 3 Xrotation Yrotation Zrotation
            JOINT lAnkle
            {
                OFFSET   0.000000  -0.390000   0.000000
                CHANNELS 3 Xrotation Yrotation Zrotation
                JOINT lToeJoint
                {
                    OFFSET   0.000000  -0.050000   0.130000
                    CHANNELS 3 Xrotation Yrotation Zrotation
                    End Site
                    {
                        OFFSET   0.010000   0.002000   0.060000
                    }
                }
            }
        }
    }
}
MOTION
Frames: 5
Frame Time:   0.008333
 -2.386720   0.907447   4.007219  -5.440930 -21.830210   0.496889   6.886730  -0.005438  -1.041104   6.334913  -1.922091   3.932416   1.219607   1.752682  -0.153069  -1.681230   7.642505  -4.406924  -0.394205  27.914123  44.332924 179.987620  64.523319 -179.990087   1.810486   3.752119  -0.659304   3.256568  -8.718602  -1.298697  14.492702 -15.531654 -46.374199   0.147340 -77.297275   0.193058   1.891505  -4.530177   2.303197  -8.890916   2.764939 -14.423065  24.473609  -0.007634  -0.031809  -1.605160  -3.409583   2.902421 -12.501891  -0.007773  -0.045057   1.906113   0.951216  11.666151  21.883521  -0.008128  -0.017372  -4.398364   2.491081  -1.585343 -10.461681   0.001104  -0.009802
 -2.387649   0.907556   4.008363  -5.635000 -19.819691   0.267960   6.780137   0.469225  -1.039386   6.159948  -1.868756   3.631379   1.240286   1.413729   0.019260  -1.692469   7.031066  -4.381489  -0.091797  26.530484  44.132310 179.993482  64.700531 -179.994081   1.802285   4.060328  -0.763277   3.318700  -7.895511  -1.503948  14.800999 -15.194117 -46.836843   0.157916 -76.745087   0.207401   1.917477  -4.473511   2.146538  -7.911551   2.220522 -14.396407  24.255302  -0.006908  -0.028452  -1.711415  -3.757963   3.104461 -12.999693  -0.005717  -0.041514   1.656995   1.093498  11.925850  21.739591  -0.007448  -0.016481  -4.570087   2.375985  -1.335171 -10.574694   0.000880  -0.009824
 -2.388348   0.907467   4.009707  -5.826054 -17.869528   0.028941   6.667149   0.928706  -1.023756   6.004579  -1.816913   3.375328   1.258502   1.098677   0.174169  -1.651972   6.360290  -4.336235   0.242019  25.161629  43.947853 179.998159  64.900767 -179.997241   1.792484   4.176905  -0.988489   3.381497  -7.044910  -1.663421  15.099423 -14.815385 -47.240988   0.163274 -76.210215   0.214734   1.930781  -4.354299   2.242167  -6.960819   1.686762 -14.308128  24.102107  -0.006065  -0.024803  -1.874932  -4.079264   3.311736 -13.483768  -0.003971  -0.038396   1.428294   1.231341  12.194773  21.627126  -0.006669  -0.015144  -4.754783   2.280001  -1.101533 -10.957176   0.000766  -0.014431
 -2.388709   0.907226   4.011179  -6.007082 -15.988685  -0.195547   6.550390   1.357875  -0.999497   5.862527  -1.768177   3.154531   1.275603   0.805573   0.315300  -1.590081   5.695734  -4.286942   0.571469  23.858731  43.783941 -179.998422  65.098794 -179.999576   1.780448   4.187435  -1.228505   3.452695  -6.215428  -1.786249  15.393433 -14.434451 -47.602931   0.162792 -75.701050   0.214617   1.939361  -4.182100   2.439239  -6.048354   1.182510 -14.209222  23.979688  -0.005295  -0.021413  -2.037655  -4.388366   3.502615 -13.975631  -0.002674  -0.035811   1.214736   1.358114  12.431681  21.525596  -0.005963  -0.013811  -4.951241   2.182465  -0.891186 -11.587342   0.000739  -0.021943
 -2.388718   0.906861   4.012723  -6.176245 -14.174439  -0.402480   6.431542   1.754936  -0.965477   5.729094  -1.723641   2.964355   1.291345   0.532115   0.446518  -1.521435   5.059882  -4.235000   0.882401  22.633037  43.640758 -179.996051  65.287815 179.998769   1.767491   4.154682  -1.459390   3.528280  -5.426098  -1.888298  15.677757 -14.068232 -47.934975   0.157827 -75.220839   0.208790   1.945491  -3.979995   2.662791  -5.174431   0.711054 -14.107455  23.879499  -0.004611  -0.018370  -2.189261  -4.678609   3.680329 -14.482085  -0.001721  -0.033770   1.011772   1.475967  12.633104  21.431305  -0.005345  -0.012559  -5.157465   2.086082  -0.701614 -12.423334   0.000873  -0.030828
